<?xml version="1.0" standalone="no"?>
<!DOCTYPE svg PUBLIC "-//W3C//DTD SVG 20010904//EN"
 "http://www.w3.org/TR/2001/REC-SVG-20010904/DTD/svg10.dtd">
<svg version="1.0" xmlns="http://www.w3.org/2000/svg"
 width="400.000000pt" height="400.000000pt" viewBox="0 0 400.000000 400.000000"
 preserveAspectRatio="xMidYMid meet">
<metadata>
Created by potrace 1.11, written by Peter Selinger 2001-2013
</metadata>
<g transform="translate(0.000000,400.000000) scale(0.100000,-0.100000)"
fill="#000000" stroke="none">
<path d="M1507 3472 c-34 -107 -135 -330 -169 -376 -12 -16 -16 -16 -29 -4
-20 20 -188 135 -288 197 l-83 52 -25 -23 c-14 -13 -72 -68 -129 -124 l-104
-100 47 -30 c89 -55 248 -162 268 -181 11 -10 44 -35 73 -57 28 -21 52 -40 52
-43 0 -7 -130 -134 -190 -187 -75 -66 -225 -163 -341 -222 l-111 -55 74 -77
c40 -42 100 -116 132 -164 l58 -88 46 27 c198 112 347 227 510 391 l112 113
27 -21 c34 -26 139 -142 221 -243 l64 -77 112 117 c62 65 125 133 140 150 l28
33 -20 27 c-22 30 -243 248 -306 302 -33 28 -38 36 -28 51 41 66 142 271 202
410 39 91 76 169 81 174 18 19 8 25 -88 55 -54 18 -138 45 -188 61 -49 17 -94
30 -100 30 -5 0 -27 -53 -48 -118z"/>
<path d="M1950 1825 l0 -170 195 3 195 3 0 -91 0 -92 -250 4 -250 3 0 -170 0
-170 250 3 250 4 0 -144 c0 -353 39 -433 231 -474 62 -13 120 -15 349 -10 151
3 302 9 336 12 l61 6 -5 182 c-2 99 -5 182 -6 182 0 1 -41 -7 -91 -17 -117
-25 -420 -38 -463 -20 -38 16 -42 31 -42 169 l0 113 334 -3 334 -3 1 170 2
170 -336 -3 -335 -3 0 91 0 91 280 -3 280 -3 0 170 0 170 -660 0 -660 0 0
-170z"/>
</g>
</svg>
